<?xml version="1.0" encoding="utf-8"?>
<!-- Generator: Adobe Illustrator 17.0.0, SVG Export Plug-In . SVG Version: 6.00 Build 0)  -->
<!DOCTYPE svg PUBLIC "-//W3C//DTD SVG 1.1//EN" "http://www.w3.org/Graphics/SVG/1.1/DTD/svg11.dtd">
<svg version="1.1" id="Layer_1" xmlns="http://www.w3.org/2000/svg" xmlns:xlink="http://www.w3.org/1999/xlink" x="0px" y="0px"
	 width="580px" height="75px" viewBox="0 0 580 75" enable-background="new 0 0 580 75" xml:space="preserve">
<g>
	<path fill="#73A950" d="M168.06,26.881c0.21-0.527,0.445-1.048,0.695-1.558l-1.014-4.017l-4.459,0.578
		c-0.353,0.691-0.674,1.396-0.985,2.114l4.54-0.894L168.06,26.881z M194.057,3.01c-9.23,0-17.619,3.645-23.827,9.559h4.175
		l0.529,4.4c5.023-4.665,11.742-7.526,19.123-7.526c15.518,0,28.14,12.617,28.14,28.142c0,1.891-0.194,3.731-0.559,5.524
		l2.358,4.566l3.499-1.318c0.737-2.802,1.134-5.747,1.134-8.772C228.629,18.518,213.117,3.01,194.057,3.01z M220.045,48.327
		c-0.271,0.647-0.549,1.294-0.872,1.906l0.992,4.375l4.211-0.439c0.368-0.659,0.706-1.34,1.019-2.026l-4.001,0.698L220.045,48.327z
		 M215.229,56.088c-5.162,5.894-12.734,9.628-21.172,9.628c-15.517,0-28.139-12.622-28.139-28.131c0-3.222,0.559-6.299,1.559-9.175
		l-1.401-3.572l-4.574,1.193c-1.286,3.616-2.016,7.494-2.016,11.554c0,19.055,15.515,34.567,34.572,34.567
		c10.525,0,19.959-4.735,26.3-12.176l-4.146,0.434L215.229,56.088z M169.505,23.883c0.286-0.51,0.575-1.014,0.89-1.499l-0.532-4.458
		h-4.224c-0.46,0.666-0.896,1.354-1.315,2.053l4.386-0.296L169.505,23.883z M206.252,32.663l-0.198-0.931
		c-1.114-5.39-5.039-8.013-11.997-8.013c-6.955,0-10.877,2.624-11.994,8.013l-0.198,0.931H206.252z M206.581,33.202h-25.048
		c-0.078,0-0.154-0.035-0.211-0.098c-0.049-0.064-0.068-0.147-0.054-0.226l0.265-1.259c1.181-5.676,5.273-8.434,12.523-8.434
		c7.249,0,11.348,2.758,12.525,8.434l0.265,1.259c0.01,0.079-0.003,0.162-0.055,0.226C206.737,33.167,206.661,33.202,206.581,33.202
		z M187.144,44.349l-0.073,0.703h13.974l-0.063-0.703H187.144z M187.315,41.13v0.887c0,0.142-0.005,0.279-0.015,0.419h13.52
		c-0.013-0.14-0.024-0.277-0.024-0.419V41.13H187.315z M187.181,43.878h13.756l-0.084-0.941h-13.589L187.181,43.878z
		 M210.719,40.865c0-1.725-1.401-3.126-3.126-3.126c-1.732,0-3.129,1.401-3.129,3.126v1.151c0,1.727,1.396,3.126,3.129,3.126
		c1.725,0,3.126-1.399,3.126-3.126V40.865z M201.765,42.017v-1.151c0-2.558,1.641-4.794,4.083-5.564l2.999-0.938l-0.642-3.077
		c-1.343-6.482-6.103-9.765-14.148-9.765c-8.04,0-12.808,3.283-14.15,9.765l-0.637,3.077l2.994,0.938
		c2.449,0.77,4.089,3.006,4.089,5.564v1.151c0,0.171-0.008,0.343-0.022,0.514l-0.338,3.783h16.135l-0.338-3.783
		C201.77,42.359,201.765,42.188,201.765,42.017z M183.65,40.865c0-1.725-1.399-3.126-3.126-3.126c-1.725,0-3.131,1.401-3.131,3.126
		v1.151c0,1.727,1.406,3.126,3.131,3.126c1.727,0,3.126-1.399,3.126-3.126V40.865z M211.429,48.562l0.047,6.345h-6.789v-5.895
		h-10.63h-10.632v5.895h-6.786l0.054-6.345c-1.651-0.02-2.979-1.357-2.979-3.008v-8.241c0-1.668,1.352-3.016,3.016-3.016
		c0.022,0,0.046,0.005,0.071,0.007c0.2-2.391,0.543-15.485,17.256-15.485c16.711,0,17.057,13.095,17.257,15.485
		c0.027-0.002,0.049-0.007,0.069-0.007c1.67,0,3.018,1.348,3.018,3.016v8.241C214.4,47.205,213.077,48.543,211.429,48.562z
		 M411.852,72.152l-13.337-23.05H385.63v23.05h-11.387V3.01h27.879c6.296,0,11.715,2.269,16.223,6.779
		c4.508,4.507,6.757,9.924,6.757,16.225c0,4.789-1.367,9.142-4.082,13.053c-2.665,3.854-6.041,6.605-10.161,8.266l14.243,24.819
		H411.852z M402.122,14.534H385.63V37.47l16.492,0.115c3.126,0.017,5.801-1.127,8.064-3.393c2.269-2.264,3.386-4.988,3.386-8.178
		c0-3.126-1.117-5.831-3.386-8.092C407.923,15.656,405.248,14.534,402.122,14.534z M366.359,3.01v11.524h-27.953v17.35h27.953
		v11.397h-27.953v17.345h27.953v11.526h-39.34V3.01H366.359z M276.999,3.01h44.386v11.524H305v57.618h-11.519V14.534h-16.482V3.01z
		 M227.037,3.01h44.381v11.524h-16.37v57.618h-11.531V14.534h-16.479V3.01z M116.662,49.102v23.05h-11.396V3.01h27.894
		c6.304,0,11.72,2.269,16.23,6.779c4.51,4.507,5.607,9.944,5.607,16.311c0,6.323-1.083,11.791-5.629,16.335
		c-4.478,4.473-9.905,6.666-16.226,6.666H116.662z M116.662,14.534v23.051h16.497c3.127,0,5.801-1.127,8.07-3.393
		c2.271-2.264,3.391-4.963,3.391-8.092c0-3.192-1.12-5.917-3.391-8.178c-2.268-2.266-4.943-3.388-8.07-3.388H116.662z M74.144,3.01
		c4.77,0,9.233,0.882,13.403,2.675c4.14,1.783,7.81,4.275,10.999,7.469l-8.172,8.156c-4.513-4.508-9.932-6.776-16.231-6.776
		c-3.194,0-6.176,0.593-8.974,1.793c-2.793,1.191-5.228,2.847-7.323,4.936c-2.089,2.095-3.75,4.535-4.976,7.34
		c-1.229,2.786-1.837,5.784-1.837,8.981c0,3.187,0.608,6.186,1.837,8.969c1.225,2.808,2.867,5.24,4.937,7.34
		c2.056,2.087,4.481,3.743,7.315,4.941c2.825,1.196,5.826,1.791,9.02,1.791c6.235,0,11.649-2.222,16.231-6.666l8.172,8.048
		c-3.189,3.194-6.859,5.676-10.999,7.462c-4.17,1.803-8.633,2.683-13.403,2.683c-4.789,0-9.258-0.909-13.442-2.744
		c-4.189-1.835-7.859-4.294-11.004-7.42c-3.153-3.136-5.623-6.781-7.449-10.966c-1.821-4.187-2.738-8.653-2.738-13.437
		c0-4.647,0.919-9.084,2.738-13.3c1.826-4.224,4.296-7.918,7.449-11.068c3.146-3.146,6.815-5.63,11.004-7.465
		C64.887,3.917,69.355,3.01,74.144,3.01z M223.267,49.4l3.662-1.122c-0.226,0.686-0.465,1.357-0.734,2.031l-3.856,0.914
		l-1.668-4.552c0.21-0.613,0.399-1.23,0.566-1.857L223.267,49.4z"/>
	<g>
		<path fill="#FFFFFF" d="M448.71,6.1h4.473c3.25,0,4.076,2.207,4.076,4.011c0,1.802-0.826,4.011-4.076,4.011h-2.748v6.319h-1.725
			V6.1z M450.435,12.419h2.263c1.365,0,2.729-0.364,2.729-2.308c0-1.945-1.364-2.31-2.729-2.31h-2.263V12.419z"/>
		<path fill="#FFFFFF" d="M464.895,6.1h1.562l5.442,14.341h-2.012l-1.275-3.546h-6.052l-1.258,3.546h-2.011L464.895,6.1z
			 M467.983,15.194l-2.371-6.583h-0.036l-2.406,6.583H467.983z"/>
		<path fill="#FFFFFF" d="M476.427,6.1h4.472c3.251,0,4.077,2.207,4.077,4.011c0,1.823-1.203,3.544-3.125,3.788l3.609,6.542h-2.155
			l-3.232-6.319h-1.922v6.319h-1.724V6.1z M478.15,12.419h2.264c1.364,0,2.729-0.364,2.729-2.308c0-1.945-1.365-2.31-2.729-2.31
			h-2.264V12.419z"/>
		<path fill="#FFFFFF" d="M490.275,6.1H492v6.198h0.144l5.621-6.198h2.407l-6.143,6.623l6.556,7.718h-2.515l-5.927-7.171H492v7.171
			h-1.725V6.1z"/>
		<path fill="#FFFFFF" d="M504.789,6.1h1.725V20.44h-1.725V6.1z"/>
		<path fill="#FFFFFF" d="M512.656,6.1h2.264l7.004,11.789h0.035V6.1h1.725V20.44h-2.191l-7.076-11.79h-0.035v11.79h-1.725V6.1z"/>
		<path fill="#FFFFFF" d="M540.658,12.419v7.069c-1.238,0.851-3.268,1.316-4.812,1.316c-4.311,0-6.807-3.463-6.807-7.535
			c0-4.254,2.748-7.535,6.627-7.535c2.334,0,3.754,0.709,4.74,1.863l-1.221,1.479c-1.041-1.134-2.244-1.52-3.519-1.52
			c-2.91,0-4.795,2.574-4.795,5.713c0,3.241,2.137,5.713,4.938,5.713c1.205,0,2.354-0.264,3.125-0.75v-3.99h-2.818v-1.823H540.658z"
			/>
		<path fill="#FFFFFF" d="M448.585,30.41h2.567l4.041,10.857h0.072l4.005-10.857h2.568v14.342h-1.725V32.963h-0.035l-4.293,11.789
			h-1.149l-4.292-11.789h-0.036v11.789h-1.724V30.41z"/>
		<path fill="#FFFFFF" d="M471.846,30.41h1.562l5.442,14.342h-2.012l-1.275-3.545h-6.052l-1.258,3.545h-2.011L471.846,30.41z
			 M474.935,39.506l-2.371-6.584h-0.036l-2.406,6.584H474.935z"/>
		<path fill="#FFFFFF" d="M483.091,30.41h4.436c5.369,0,6.681,4.517,6.681,7.171c0,3.667-2.425,7.171-6.969,7.171h-4.148V30.41z
			 M484.815,42.929h2.173c2.909,0,5.388-1.804,5.388-5.348c0-1.823-0.844-5.348-4.975-5.348h-2.586V42.929z"/>
		<path fill="#FFFFFF" d="M499.562,30.41h8.207v1.823h-6.483v4.274h6.035v1.822h-6.035v4.599h6.807v1.823h-8.53V30.41z"/>
		<path fill="#FFFFFF" d="M448.71,54.722h8.208v1.823h-6.483v4.274h6.034v1.823h-6.034v4.599h6.807v1.822h-8.531V54.722z"/>
		<path fill="#FFFFFF" d="M466.547,54.722h1.562l5.442,14.341h-2.012l-1.275-3.545h-6.052l-1.258,3.545h-2.011L466.547,54.722z
			 M469.636,63.816l-2.371-6.582h-0.036l-2.406,6.582H469.636z"/>
		<path fill="#FFFFFF" d="M478.456,66.064c0.61,1.054,1.67,1.541,2.694,1.541c1.131,0,2.532-0.811,2.532-2.391
			c0-3.303-6.268-1.257-6.268-6.847c0-1.682,1.258-4.011,4.31-4.011c1.383,0,2.712,0.323,3.664,1.641l-1.401,1.438
			c-0.431-0.75-1.274-1.257-2.263-1.257c-1.903,0-2.478,1.297-2.478,2.188c0,3.625,6.268,1.458,6.268,6.623
			c0,2.775-1.975,4.436-4.419,4.436c-1.634,0-3.196-0.628-4.059-1.984L478.456,66.064z"/>
		<path fill="#FFFFFF" d="M490.94,54.722h1.724v14.341h-1.724V54.722z"/>
		<path fill="#FFFFFF" d="M498.808,54.722h8.208v1.823h-6.483v4.274h6.034v1.823h-6.034v4.599h6.807v1.822h-8.531V54.722z"/>
		<path fill="#FFFFFF" d="M512.656,54.722h4.473c3.25,0,4.076,2.208,4.076,4.011c0,1.823-1.203,3.545-3.125,3.788l3.609,6.542
			h-2.154l-3.232-6.319h-1.922v6.319h-1.725V54.722z M514.381,61.041h2.264c1.363,0,2.729-0.364,2.729-2.309
			c0-1.945-1.365-2.309-2.729-2.309h-2.264V61.041z"/>
	</g>
</g>
</svg>
